<?xml version="1.0" encoding="UTF-8"?>
<svg enable-background="new 0 0 1482 1763.937" version="1.1" viewBox="0 0 1482 1763.937" xmlns="http://www.w3.org/2000/svg">
 <path d="m429.07 1073.2l-14.84 9.746c5.626 8.542 3.587 5.518 10.995 16.215l4.465-3.13c23.316 33.556 49.926 64.28 79.038 92.716l-3.797 3.913c6.458 6.292 15.481 14.603 16.507 15.503l11.914-13.163c-21.536-18.581-66.248-64.114-104.28-121.8z"/>
 <path d="m947.08 1313.5v-0.034 0.034z"/>
 <path d="m947.08 1313.5v-0.01 0.01z"/>
 <path d="m425.23 1099.2l-17.632 12.358c24.197 34.804 51.769 66.727 82.343 96.594l14.995-15.452c-30.031-29.335-56.632-60.302-79.706-93.5z"/>
 <path d="m1266.1 1462.3c-1.923-6.071-3.878-12.242-5.852-18.476 39.885-17.334 70.934-33.191 108.28-56.465l-24.105-38.525c-34.015 21.205-63.628 36.436-98.338 51.596-1.777-5.214-3.562-10.451-5.363-15.735 39.478-17.271 67.359-32.65 99.454-52.748l-25.07-39.409c-30.053 18.807-56.557 33.336-89.971 47.995-2e-3 -4e-3 -5.279-14.389-5.28-14.392 32.179-14.125 65.14-32.11 91.16-49.16l-26.044-40.271c-23.631 15.511-55.773 32.959-81.999 44.468-1.679-4.361-3.368-8.747-5.052-13.122 24.879-10.917 54.949-27.048 83.123-45.574l-27.042-41.136c-28.085 18.478-50.088 29.598-73.6 40.62-1.162-3.139-2.331-6.297-3.503-9.463 181.56-69.825 236.69-314.7 37.537-416.07 0.995-3.577-0.134 0.679 2.088-8.276-88.588-20.477-37.833-10.605-95.302-25.183 0.566-2.422 1.627-8.518 1.85-10.331l97.424 14.288c0.024-0.174 0.754-5.312 0.766-5.481l-97.699-12.264c1.122-13.739 2.011-13.454 0.487-38.967l97.984-9.738c-2.05-26.134-10.95-60.832-26.882-92.657l79.486-39.977c-3.496-7.086-8.677-16.305-10.245-18.935l22.861-13.293c-11.206-18.901-23.212-36.574-37.486-53.406l-20.279 16.973c-2.002-2.366-5.641-6.8-13.02-14.71l-24.885 23.257c-12.929-13.99-30.409-29.473-43.765-39.095l-11.848 15.969c1.234 0.888 0.405 0.263 2.919 2.211l-4.581 6.021c-2.415-1.872-1.614-1.27-2.846-2.156l-11.848 15.969c1.13 0.81 0.354 0.226 2.655 2.012l-4.588 6.031c-10.978-8.539-26.527-18.492-44.176-27.29l62.981-128.5c-9.087-4.538-18.564-8.588-27.966-12.433l12.127-30.313c-24.05-9.869-57.369-19.833-89.517-25.192l-5.475 32.187c-14.094-2.339-26.609-3.681-27.613-3.767l-1.63 16.163c1 0.079 14.03 1.527 22.443 2.942l-1.787 11.221c-7.747-1.306-20.795-2.78-21.796-2.858l-1.411 13.988c6.475 0.754 14.167 1.601 20.996 2.754l-1.787 11.222c-6.708-1.135-14.502-1.989-20.349-2.67l-1.411 13.993c5.94 0.692 13.255 1.498 19.548 2.566l-1.788 11.227c-6.148-1.046-13.55-1.858-18.9-2.482l-1.411 13.988c5.398 0.63 12.348 1.397 18.1 2.378l-1.786 11.216c-5.57-0.953-12.508-1.717-17.453-2.294l-1.412 13.999c4.75 0.555 11.443 1.295 16.652 2.19l-1.786 11.216c-5.002-0.862-11.626-1.594-16.005-2.106l-1.412 13.999c4.078 0.477 10.511 1.189 15.204 2.001l-1.786 11.216c-4.489-0.78-10.819-1.48-14.557-1.917l-1.411 13.988c3.442 0.403 9.601 1.088 13.757 1.813l-1.788 11.228c-3.987-0.699-10.014-1.367-13.109-1.729l-1.411 13.988c0.947 0.058 9.362 1.104 12.309 1.625l-1.786 11.216c-2.619-0.465-10.794-1.489-11.662-1.541l-0.713 7.073c-3.417-0.233-3.746-0.372-5.711-0.476 5.126-71.115 8.378-116.24 12.682-175.95-1.993-0.123-12.07-0.831-19.314-0.897 1.946-92.119 2.843-134.54 4.785-226.5-14.941-0.186-10.731-0.196-23.869-0.026l-0.519-28.869c-5.195 0.036-9.045 0.223-20.596 0.67l-0.857-17.021c-51.071 3.119-90.13 9.123-139.78 22.57l4.546 16.425c-5.396 1.469-16.047 4.595-23.993 7.165l8.809 27.497c-11.695 3.796-22.635 7.687-23.635 8.09l58.138 158.32c-20.045 7.646-38.089 15.206-61.609 28.374l18.187 32.506c-5.474 3.066-3.582 1.977-8.856 5.105l4 6.733c-11.053 6.512-23.098 14.53-34.59 23.114l11.929 15.909c11.208-8.368 22.708-15.977 32.816-21.927l3.91 6.582c-9.644 5.678-19.385 12.16-28.384 18.734l11.72 16.056c7.678-5.61 16.763-11.786 26.817-17.699l3.913 6.587c-10.039 5.905-17.439 11.106-22.754 14.767l11.513 16.205c4.999-3.44 11.851-8.275 21.394-13.882l3.911 6.583c-5.178 3.046-11.921 7.316-17.631 11.313l11.306 16.357c4.422-3.101 10.704-7.183 16.48-10.575l3.913 6.587c-4.9 2.859-8.414 5.206-13.099 8.257l11.092 16.496c4.362-2.836 7.637-5.03 12.16-7.663l3.908 6.578c-3.346 1.952-7.07 4.316-9.105 5.676l10.882 16.642c1.524-1.021 5.054-3.289 8.379-5.223l3.911 6.583c-3.805 2.219-1.86 1.152-5.704 3.487l10.664 16.776c3.631-2.195 1.459-1.001 5.193-3.173l3.913 6.587c-2.272 1.31-1.251 0.699-2.867 1.731l10.447 16.913c1.423-0.912 0.508-0.368 2.574-1.554l2.788 4.693c-5.315 3.087-9.547 6.131-10.549 6.805l-56.429-80.693c-2.417 1.657-0.926 0.592-4.515 3.232l58.084 79.51c-0.527 0.377-1.503 1.061-1.9 1.379l-59.174-78.702c-2.642 2.042-1.693 1.317-4.415 3.378l-212.3-270.55c-9.561 7.528-16.165 13.175-17.242 14.085l-20.315-24.039c-7.001 5.929-5.216 4.388-8.865 7.618l-9.71-11.077c-33.575 29.767-56.285 54.127-82.353 86.553l11.548 9.146c-11.342 14.135-26.05 34.973-29.355 40.134l-12.219-8.228c-23.031 34.886-39.616 64.109-57.494 104.94l13.51 5.873c-3.012 6.901-1.838 4.088-7.898 18.936l29.252 11.614c-0.485 1.145-5.185 13.417-6.897 18.256l222.32 80.098c-3.895 11.051-7.973 23.682-10.732 35.171l-433.78-109.18c-4.159 17.035-3.458 14.061-5.244 22.172l-43.432-9.654-2.543 11.741-20.395-4.237c-8.915 41.8-14.416 86.843-17.118 130.54l20.798 1.174c-1.13 18.761-1.275 35.947-1.346 41.653l-20.83-0.182c-0.417 42.603 2.256 85.901 8.485 130.93l20.631-2.875c1.796 12.632 1.347 9.79 3.145 20.735l43.905-7.206c2.185 13.055 1.607 9.847 3.462 19.606l596.2-112.78c0.83 4.479 0.379 2.189 1.101 5.427l-190.56 41.219c2.084 9.631 4.411 19.009 7.585 29.63l-31.302 9.282c9.676 32.607 23.695 64.48 35.716 85.887l28.649-15.658c3.535 6.314 4.272 7.702 5.703 10.061l-190.08 110.97c6.953 11.771 4.629 7.911 12.829 21.05l7.185-4.58c29.43 46.55 67.269 91.518 113.52 132.6l-5.636 6.391c5.76 5.099 12.406 10.792 21.82 18.382l189.43-235.39c7.948 6.427 13.653 10.493 20.631 15.332l-50.499 73.857c5.998 4.176 16.977 11.091 20.028 12.884l-16.869 27.966c22.576 13.32 38.571 21.53 64.662 32.205l12.159-30.312c7.986 3.281 16.77 6.297 20.249 7.528l6.538-19.132c5.905 2.08 18.906 6.091 29.362 8.786l-54.251 211.28c16.441 4.021 13.067 3.228 20.719 4.9l-5.078 23.079c10.918 2.376 6.804 1.536 21.666 4.387l-10.207 55.516c5.317 1.007 16.993 2.989 27.895 4.529l-10.082 70.97c20.241 2.806 35.683 4.542 59.265 6.084l4.56-71.538c1 0.063 15.784 1.065 28.126 1.258l1.33-56.431c17.674 0.228 12.819 0.231 25.316 0.073l-0.365-23.628c8.499-0.115 21.273-0.634 22.273-0.705l-0.948-18.503c-8.975 0.354-22.148 1.015-40.29 0.683 0.123-8.01 0.192-12.507 0.218-14.192 15.57 0.193 29.438-0.113 39.346-0.666l-5.263-102.73c13.526 6.586 28.028 11.922 43.272 15.816l4.08 29.885c30.295-4.239 53.469-9.436 81.82-17.871 1.556 4.028 3.097 8.018 4.62 11.96-27.385 8.15-53.075 14.141-80.68 18.01l7.025 48.724c34.063-4.798 61.312-11.703 91.009-20.545 1.637 4.407 3.268 8.798 4.896 13.18-30.791 9.843-73.465 18.796-89.412 20.636l7.199 47.416c8.802-1.048 53.078-8.387 99.286-23.168 0 0 5.561 14.278 5.562 14.283-32.66 10.538-63.605 17.606-97.608 23.218l7.357 46.125c36.351-5.997 69.054-13.391 107.78-25.923 2.136 5.143 4.258 10.251 6.375 15.348-34.094 11.052-67.95 19.663-106.11 26.039l7.496 44.822c45.924-7.684 81.94-17.626 116.7-28.959 2.644 5.98 5.255 11.888 7.839 17.731-36.507 13.982-83.835 31.088-108.27 45.433-40.969 24.121-22.667 40.121 21.75 42.874 37.975 2.242 82.555-6.882 118.85-18.331 33.007 68.452 50.541 99.553 66.635 128.35l14.354-5.442c-43.083-200.63-57.653-99.401 62.142-201.71 9.345-8.425 22.44-20.958 26.712-32.942 15.661-44.357-99.211 2.515-145.81 20.472zm-26.121-904.36c4.004 6.768 2.542 4.227 4.476 7.712l-13.552 7.637c-1.858-3.352-0.415-0.841-4.265-7.349l13.341-8zm-43.333 286.27l6.817 3.321c-5.731 11.441-12.113 23.208-20.602 35.293l-6.248-4.298c8.204-11.671 14.465-23.199 20.033-34.316zm8.828 54.167l-6.234-4.288c9.191-13.112 15.954-25.597 22.094-37.852l6.802 3.314c-6.47 12.909-13.313 25.481-22.662 38.826zm4.559 33.595c-3.081 3.84-0.993 1.326-5.633 6.796l-11.838-10.093c4.452-5.246 2.313-2.666 5.367-6.475l12.104 9.772zm-32.419-1.107c-4.915 5.284-3.013 3.29-5.603 5.921l-11.164-10.832c2.468-2.506 0.607-0.555 5.316-5.618l11.451 10.529zm-14.28-136.72l4.051 1.301c-6.97 21.769-15.461 37.785-27.148 55.838l-3.526-2.383c11.559-17.86 19.833-33.542 26.623-54.756zm-22.829 90.144l-11.833-10.089c3.491-4.101 1.565-1.782 3.926-4.739l12.1 9.767c-2.478 3.101-0.514 0.736-4.193 5.061zm1.606 40.013c-5.233 4.863-3.151 2.986-5.415 4.969l-10.378-11.588c2.163-1.892 0.062 2e-3 5.108-4.687l10.685 11.306zm-2.212-137.68l4.498 1.444c-6.161 19.302-13.68 33.449-24.165 49.701l-3.914-2.645c10.358-16.068 17.62-29.813 23.581-48.5zm-40.061 37.363l-3.539-2.392c11.409-17.786 15.286-26.8 20.595-42.359l4.067 1.306c-5.212 15.302-9.16 24.814-21.123 43.445zm8.876 59.009c-2.534 2.504-1.611 1.626-4.291 4.096l-10.591-11.394c3.639-3.349 0.993-0.91 3.989-3.808l10.893 11.106zm-168.96 171.27c9.948 0.365 16.572 0.42 16.833 0.407l0.023 22.806c-1.002 0.049-9.274-0.115-17.976-0.434l1.12-22.779zm-73.667-709.98l-6.962-29.749c6.152-1.517 21.297-4.452 22.297-4.598l5.345 30.081c-1.002 0.144-15.272 2.926-20.68 4.266zm2.047 44.927c-4.118 1.128-11.16 2.965-17.97 5.203l-9.258-29.11c7.216-2.364 14.799-4.362 19.56-5.662l7.668 29.569zm-12.101-87.885l-6.961-29.743c7.238-1.776 23.632-4.93 24.632-5.079l5.344 30.076c-1 0.147-16.554 3.154-23.015 4.746zm33.109 52.056l5.344 30.076c-1.001 0.139-14.027 2.707-18.345 3.785l-6.961-29.743c5.052-1.255 18.961-3.976 19.962-4.118zm7.718 43.433l5.343 30.071c-1 0.192-11.43 2.151-16.01 3.305l-6.96-29.738c5.243-1.314 16.614-3.444 17.627-3.638zm-0.613 76.334l-6.961-29.743c4.272-1.081 14.29-2.965 15.295-3.158l5.344 30.076c-1.002 0.192-10.251 1.95-13.678 2.825zm19.759-3.834l-4.629-30.194c1-0.139 11.488-1.619 15.576-1.947l3.001 30.399c-2.316 0.18-12.942 1.571-13.948 1.742zm-6.685-43.61l-4.628-30.189c1.002-0.139 12.719-1.812 17.926-2.243l3.001 30.394c-4.674 0.379-15.291 1.898-16.299 2.038zm-6.683-43.599l-4.629-30.194c1-0.139 14.08-2.015 20.277-2.539l3.001 30.399c-5.651 0.471-17.634 2.193-18.649 2.334zm-20.023 62.939l7.668 29.569c-2.522 0.7-8.483 2.25-13.378 3.879l-9.258-29.11c5.523-1.829 11.639-3.419 14.968-4.338zm3.938 486.27c1.586 0.587 7.715 2.552 13.637 4.129l-15.362 57.336c-6.201-1.671-9.954-2.833-12.017-3.512 1.983-27.586 2.935-26.327 13.742-57.953zm5.513-16.131l2.394-7.005c1.315 0.491 6.93 2.287 12.059 3.648l-1.916 7.15c-5.409-1.436-11.172-3.285-12.537-3.793zm7.906-23.137l1.65-4.829c1 0.378 6.573 2.142 10.629 3.213l-1.321 4.929c-4.736-1.251-9.958-2.935-10.958-3.313zm46.832 45.235c1.005 0.036 6.45 0.287 10.967 0.199l0.138 19.884c-4.672 0.085-10.96-0.18-11.963-0.217l0.858-19.866zm148.26-341.53c-0.915-1.143-14.441-15.523-34.858-28.985l-9.291 14.286c17.596 11.604 30.553 24.863 31.793 26.436l-4.13 3.923c-10.317-11.574-24.415-21.7-37.515-29.746l14.594-24.928c19.905 11.69 36.632 26.741 43.864 34.779l-4.457 4.235zm11.461 14.406c1.245 1.693 2.549 3.305 3.132 4.132l-12.492 9.261c-0.387-0.552-1.853-2.398-2.879-3.799l12.239-9.594zm-69.865-84.08c-2.353-0.994-6.875-2.605-9.274-3.453l8.597-24.769c2.787 0.985 7.69 2.734 10.416 3.879l-9.739 24.343zm104.54 86.355c1.887 2.985 1.269 1.967 3.05 5.025l-13.407 7.889c-2.061-3.465-0.337-0.726-2.832-4.666l13.189-8.248zm-8.016-26.148l12.139-9.719c1.991 2.443 0.442 0.475 4.04 5.177l-12.396 9.389c-3.358-4.39-1.811-2.431-3.783-4.847zm12.664 105.73c-3.752-19.363-8.885-34.421-17.076-50.811l4.22-2.122c8.313 16.641 13.628 32.073 17.502 52.078l-4.646 0.855zm24.208-4.454c-4.275-22.114-10.17-39.14-19.293-57.415l3.801-1.912c9.118 18.267 15.232 35.564 19.677 58.557l-4.185 0.77zm40.815-163.47c2.509 3.096 0.841 0.97 5.428 6.959l-12.401 9.392c-4.372-5.71-2.683-3.561-5.171-6.629l12.144-9.722zm-6.919 33.068c2.395 3.432 0.902 1.222 4.529 6.747l-13.037 8.486c-3.463-5.277-1.966-3.063-4.296-6.399l12.804-8.834zm-15.242 31.527c3.398 5.742 1.992 3.287 3.667 6.32-5.113 2.881-8.402 4.734-13.547 7.634-1.606-2.911-0.152-0.377-3.455-5.957 5.108-3.063 8.292-4.972 13.335-7.997zm-44.847-98.023c12.011 9.727 22.62 19.195 33.195 30.641l-5.528 5.166c-10.261-11.11-20.572-20.321-32.372-29.882l4.705-5.925zm-17.065 21.493c10.965 8.893 20.633 17.504 30.209 27.886l-5.54 5.178c-9.293-10.081-18.701-18.457-29.384-27.125l4.715-5.939zm-0.505 183.46l-4.207 0.774c-4.68-21.654-7.405-28.534-14.899-44.328l3.822-1.922c7.307 15.378 10.376 22.656 15.284 45.476zm-9.262-120.72l-3.085 2.931c-9.875-10.92-27.838-26.256-48.235-38.244l2.15-3.672c22.128 13.01 40.64 29.551 49.17 38.985zm-39.825-131.09l-10.297 24.1c-3.817-1.708-11.01-4.411-12.015-4.795l9.167-24.552c1.007 0.384 9.126 3.456 13.145 5.247zm-31.316-49.768c7.367 1.989 11.677 3.294 15.221 4.45l-7.948 24.973c-2.42-0.792-6.821-2.156-14.052-4.107l6.779-25.316zm-18.276-36.218c6.824 1.298 13.067 2.691 16.943 3.649l-6.118 25.489c-3.568-0.884-9.466-2.199-15.754-3.392l4.929-25.746zm-19.491 101.81c4.698 0.885 9.62 1.976 12.24 2.634l-6.119 25.494c-1.882-0.476-6.35-1.496-11.05-2.378l4.929-25.75zm-47.969 93.125c4.32-0.028 13.256 0.785 14.268 0.846l-0.619 6.14c-1-0.058-9.592-0.847-13.779-0.816l0.13-6.17zm-10.46-116.93l0.664 30.54c-2.434-0.052-13.198 0.611-14.198 0.671l-2.285-30.461c2.76-0.168 13.527-0.79 15.819-0.75zm-0.958-44.104l0.664 30.534c-3.302-0.052-15.539 0.723-16.539 0.784l-2.284-30.456c1-0.06 14.524-0.908 18.159-0.862zm-0.959-44.103l0.664 30.54c-3.995-0.046-17.879 0.836-18.879 0.897l-2.285-30.461c1.001-0.061 16.153-1.015 20.5-0.976zm-0.959-44.109l0.664 30.54c-4.841-0.039-20.218 0.949-21.22 1.01l-2.285-30.461c1.001-0.061 17.73-1.12 22.841-1.089zm-0.958-44.109l0.664 30.54c-5.649-0.03-22.559 1.061-23.561 1.124l-2.285-30.461c1.015-0.065 18.884-1.226 25.182-1.203zm-0.959-44.109l0.664 30.54c-6.584-0.02-24.892 1.173-25.901 1.237l-2.284-30.461c1.011-0.065 19.962-1.329 27.521-1.316zm-0.959-44.109l0.664 30.54c-8.081-9e-3 -27.239 1.286-28.242 1.35l-2.285-30.461c1.002-0.065 21.3-1.429 29.863-1.429zm-29.981 134.3l3.001 30.399c-6.569 0.56-19.847 2.47-21 2.63l-4.629-30.194c2.324-0.323 15.797-2.246 22.628-2.835zm-4.335-43.906l3.001 30.399c-7.481 0.648-21.612 2.684-23.351 2.926l-4.629-30.194c2.967-0.413 17.253-2.454 24.979-3.131zm-4.334-43.906l3.001 30.399c-8.441 0.742-23.371 2.898-25.701 3.222l-4.629-30.194c1.04-0.145 18.312-2.628 27.329-3.427zm-4.335-43.906l3.001 30.399c-9.326 0.829-25.055 3.101-28.052 3.518l-4.629-30.194c9.524-1.537 26.597-3.447 29.68-3.723zm-34.962 49.316l5.344 30.076c-1 0.15-17.736 3.361-25.35 5.226l-6.961-29.743c7.957-1.944 25.967-5.408 26.967-5.559zm-7.719-43.439l5.344 30.076c-1 0.152-18.863 3.555-27.686 5.707l-6.961-29.743c8.939-2.175 28.116-5.858 29.303-6.04zm-61.588 46.612l-9.258-29.11c11.388-3.692 22.392-6.595 28.744-8.311l7.668 29.569c-8.204 2.219-16.819 4.498-27.154 7.852zm4.113 12.934c9.93-3.226 18.272-5.435 26.448-7.649l7.668 29.569c-7.251 1.966-15.402 4.114-24.858 7.19l-9.258-29.11zm-16.404 166.66c-2.788-5.203-2.016-3.762-4.403-8.218l5.412-2.86c2.319 4.504 1.571 3.052 4.268 8.289l-5.277 2.789zm-9.492-32.999l-6.264-12.219c16.05-7.969 25.189-12.215 43.378-19.121l4.808 12.861c-17.674 6.709-26.614 10.881-41.922 18.479zm40.298 53.497l-3.965-8.444c5.334-2.497 3.75-1.779 5.068-2.357l3.826 8.509c-1.282 0.561 0.272-0.143-4.929 2.292zm6.532 37.307c-2.385-4.662-1.844-3.605-4.249-8.305l4.486-2.216c2.327 4.74 1.803 3.673 4.111 8.374l-4.348 2.147zm1.696-153.31l-9.258-29.11c9.611-3.129 18.69-5.504 24.152-6.986l7.668 29.569c-5.735 1.559-13.841 3.682-22.562 6.527zm4.114 12.934c8.202-2.678 16.555-4.881 21.856-6.324l7.668 29.569c-4.327 1.18-12.475 3.316-20.266 5.866l-9.258-29.111zm8.919 88.988l-3.314-8.714c4.882-1.867 3.438-1.337 5.304-1.985l3.169 8.768c-1.75 0.607-0.499 0.148-5.159 1.931zm6.551 78.35l-4.03-8.401 4.026-1.87 3.891 8.467c-2.363 1.108-1.566 0.738-3.887 1.804zm6.573-37.09l-3.386-8.687 4.629-1.76 3.242 8.742-4.485 1.705zm9.688 83.511c-1.612-3.151-2.632-5.145-4.243-8.295 2.023-0.98 1.301-0.626 3.271-1.607 1.559 3.177 2.547 5.187 4.106 8.364-1.923 0.958-1.24 0.623-3.134 1.538zm4.267-100.57l-9.257-29.105c6.577-2.164 13.569-3.986 17.264-5l7.667 29.564c-4.218 1.162-9.947 2.65-15.674 4.541zm-2.116 430.58l-39.181 57.303c-5.413-3.757-9.614-6.779-14.755-10.954l43.452-54.136c5.01 4.092 9.484 7.065 10.484 7.787zm-24.314 106.02c1.157 0.587 6.195 2.955 9.584 4.419l-9.142 20.801c-3.276-1.419-8.807-3.992-10.389-4.792l9.947-20.428zm-18.446-16.489l11.733-19.451c5.176 2.982 0.682 0.52 8.225 4.732l-10.967 19.892c-8.049-4.498-3.296-1.879-8.991-5.173zm-242.18 81.557c5.866 7.293 14.652 17.07 16.322 18.954l-43.466 39.438c-2.13-2.399-11.581-12.917-18.264-21.207l45.408-37.185zm-13.822-25.829l47.525-34.45c4.589 6.295 7.488 10.188 13.232 17.308l-45.716 36.817c-8.053-9.992-12.253-15.852-15.041-19.675zm-16.888 87.457l-16.371 14.854c-1.587-1.786-11.899-13.246-19.155-22.24l17.102-14.005c6.54 8.109 15.862 18.506 18.424 21.391zm3.09 3.339c2.753 2.958 9.355 10.185 19.66 20.254l-15.469 15.79c-10.425-10.191-17.1-17.469-20.44-21.058l16.249-14.986zm3.539-3.264l43.143-39.792c2.488 2.673 8.412 9.157 17.42 17.946l-41.073 41.925c-9.878-9.651-16.267-16.617-19.49-20.079zm43.964-45.98c-2.175-2.454-10.454-11.672-16.159-18.765l45.413-37.19c4.333 5.403 11.694 13.655 14.217 16.513l-43.471 39.442zm30.798-61.708c-7.079-8.773-10.801-13.983-13.085-17.116l47.52-34.446c3.856 5.293 6.398 8.713 11.276 14.748l-45.711 36.814zm26.359-71.935l20.403-13.026c2.914 4.683 8.848 13.15 9.542 14.15l-19.715 14.046c-0.699-1.007-7.132-10.198-10.23-15.17zm11.975 17.547l19.599-14.207c3.501 4.806 5.888 8.024 10.38 13.576l-18.853 15.183c-6.075-7.515-9.238-11.961-11.126-14.552zm114.63-98.375c0.702 1.147 5.775 8.614 5.958 8.84l-18.891 13.459c-0.225-0.28-5.592-8.145-6.618-9.818l19.551-12.481zm-18.586-74.431l7.279-1.377c0.3 1.523 0.633 3.282 0.974 4.803l-7.241 1.566c-0.981-4.391-0.253-1.134-1.012-4.992zm-32.032-167.2c4.782-8.006 6.301-10.662 12.983-20.312l22.993 16.203c-5.715 8.255-6.886 10.274-11.589 18.127l-24.387-14.018zm19.876 22.316c-2.642 4.91-6.29 12.713-8.989 19.374l-26.035-10.649c3.139-7.735 7.158-16.276 10.086-21.739l24.938 13.014zm26.308-19.231l22.993 16.203c-2.462 3.698-7.218 11.206-9.576 14.971l-24.387-14.018c6.79-11.322 5.084-8.39 10.97-17.156zm18.99 258.6c1.354 1.73 6.112 7.119 6.988 8.127l-17.178 15.586c-0.874-1.003-5.912-6.674-7.755-9.018l17.945-14.695zm-19.139 13.199c-1.814-2.23-3.521-4.357-7.211-9.43l18.78-13.613c3.986 5.483 5.676 7.489 6.496 8.495l-18.065 14.548zm27.313-3.814c5.229 5.606 6.473 6.734 7.473 7.695l-16.232 16.569c-3.969-3.822-7.358-7.537-8.291-8.538l17.05-15.726zm7.229-8.894c-0.868-1.002-5.26-5.959-6.611-7.691l18.676-15.294c0.983 1.268 4.936 5.749 5.813 6.765l-17.878 16.22zm-7.627-8.968c-0.818-1.002-2.286-2.724-6.146-8.037l19.544-14.167c3.406 4.69 4.581 6.06 5.401 7.063l-18.799 15.141zm-7.119-9.34c-0.157-0.192-5.014-7.341-5.635-8.36l20.346-12.989c0.446 0.737 4.839 7.211 4.948 7.343l-19.659 14.006zm-8.889-76.854c-0.91-4.045-0.201-0.912-0.886-4.367l5.014-0.948c0.662 3.336-0.027 0.301 0.859 4.237l-4.987 1.078zm-22.016 101.26c4.59 6.31 6.545 8.623 7.359 9.624l-45.716 36.817c-3.525-4.349-5.651-7.162-9.169-11.992l47.526-34.449zm-30.536 63.024l-17.132 15.544c-0.883-1-7.748-8.718-10.78-12.526l17.897-14.657c2.738 3.448 8.589 10.024 10.015 11.639zm-11.561-13.57l-18.017 14.51c-5.232-6.465-8.163-10.555-10.03-13.118l18.73-13.577c4.37 6 6.51 8.721 9.317 12.185zm-25.138 23.785c3.172 3.98 9.449 11.028 11.156 12.962l-17.927 16.266c-0.883-1-8.464-9.517-11.957-13.891l18.728-15.337zm13.036 14.978c7.071 7.59 9.859 10.277 11.917 12.275l-16.94 17.292c-6.444-6.26-11.479-11.768-12.771-13.155l17.794-16.412zm8.349-7.7l17.005-15.684c7.229 7.758 9.701 10.053 10.701 11.021l-16.189 16.525c-5.698-5.526-10.344-10.603-11.517-11.862zm20.535-18.94l43.156-39.804c5.911 6.34 7.461 7.749 8.461 8.712l-41.085 41.938c-5.166-5.001-9.516-9.756-10.532-10.846zm53.013-29.721c2.999 2.981 7.522 6.932 8.946 8.212l-38.548 44.281c-1.598-1.43-7.151-6.282-11.139-10.221l40.741-42.272zm3.331-3.459l16.097-16.701c2.102 2.099 6.388 5.9 7.9 7.254l-15.23 17.495c-1.056-0.95-5.826-5.121-8.767-8.048zm47.308-36.225l-15.85 18.207c-1-0.896-5.514-4.904-7.475-6.865l16.752-17.38c1.868 1.88 5.57 5.129 6.573 6.038zm-7.597-7.047l-16.893 17.243c-3.2-3.068-6.138-6.28-7.073-7.282l17.744-16.366c0.934 1 3.388 3.699 6.222 6.405zm-19.524-293.56l17.96 21.648c-3.36 2.966-9.983 9.008-13.263 12.062l-19.867-19.912c13.311-12.515 1.58-1.904 15.17-13.798zm-21.414 20.324l20.655 19.094c-3.164 3.336-7.872 8.876-11.536 13.692l-22.318-17.12c4.306-5.651 9.534-11.787 13.199-15.666zm-30.452-82.842l17.956 21.644c-9.172 7.787-10.921 9.46-18.773 17.077l-19.863-19.908c10.464-10.164 12.757-12.092 20.68-18.813zm-29.197 27.7l20.651 19.09c-4.814 5.121-10.908 12.279-16.339 19.392l-22.313-17.117c5.967-7.809 12.686-15.701 18.001-21.365zm-22.67-90.218l17.957 21.644c-12.25 10.379-15.133 13.189-24.282 22.091l-19.864-19.908c12.844-12.509 16.496-15.618 26.189-23.827zm-135.43 27.891l22.988 16.199c-10.275 14.825-13.471 20.086-21.652 33.904l-24.381-14.015c8.732-14.758 12.127-20.336 23.045-36.088zm-30.951-47.52l-22.309-17.114c10.894-14.206 22.042-27.319 32.411-38.464l20.647 19.086c-9.758 10.481-20.418 23.017-30.749 36.492zm64.456 49.445l-22.313-17.117c8.161-10.651 17.852-22.298 27.608-32.764l20.651 19.09c-7.901 8.469-17.077 19.214-25.946 30.791zm35.12-22.31l20.651 19.09c-7.179 7.685-15.601 17.566-23.544 27.942l-22.313-17.117c8.522-11.129 17.476-21.633 25.206-29.915zm-35.424 43.781l22.988 16.199c-10.371 14.967-13.398 20.221-19.64 30.749l-24.381-14.015c7.992-13.492 10.959-18.397 21.033-32.933zm14.894 125.42l49.663 17.708c-3.23 9.12-5.188 15.627-6.969 22.316l-50.908-13.722c2.534-9.465 4.937-17.032 8.214-26.302zm19.964 81.024l39.497 4.634c-0.978 8.387-1.514 16.294-1.598 19.22l-39.724-1.879c0.115-3.703 0.722-12.465 1.825-21.975zm20.663-81.617l-26.035-10.649c4.18-10.267 9.189-20.923 13.256-28.567l24.937 13.013c-3.692 6.928-8.36 16.866-12.158 26.203zm-13.078-113.98c7.747-10.121 15.97-19.751 22.805-27.065l20.651 19.09c-6.315 6.75-14.013 15.772-21.142 25.092l-22.314-17.117zm33.852-93.401l17.956 21.644c-11.834 10.021-15.489 13.349-27.037 24.598l-19.863-19.908c14.017-13.663 18.311-17.335 28.944-26.334zm-51.867-62.518l17.957 21.644c-13.883 11.743-18.588 15.993-32.546 29.613l-19.864-19.908c16.092-15.71 21.31-20.234 34.453-31.349zm-51.866-62.518l17.952 21.639c-14.661 12.393-20.965 17.932-38.055 34.628l-19.859-19.904c17.081-16.693 23.306-22.287 39.962-36.363zm-56.437 53.518l20.646 19.086c-10.465 11.25-21.871 24.633-33.15 39.341l-22.309-17.113c11.721-15.28 23.618-29.273 34.813-41.314zm-86.174 186.64l-26.024-10.644c7.199-17.606 15.135-34.566 22.766-49.053l24.927 13.008c-7.099 13.464-14.722 29.69-21.669 46.689zm37.593 15.376l-26.025-10.644c6.892-16.863 14.375-32.73 21.181-45.639l24.927 13.008c-6.481 12.282-13.61 27.43-20.083 43.275zm30.16-61.729l-24.377-14.012c10.201-17.272 14.458-24.206 27.071-42.4l22.984 16.197c-12.059 17.395-16.092 23.993-25.678 40.215zm45.033 92.478l-26.029-10.646c5.779-14.157 12.264-27.938 18.011-38.81l24.932 13.01c-5.362 10.13-11.507 23.195-16.914 36.446zm37.593 15.376l-26.029-10.647c5.228-12.815 11.218-25.559 16.426-35.396l24.932 13.011c-4.844 9.135-10.493 21.169-15.329 33.032zm-287.66 72.227l39.481 4.632c-1.555 13.651-3.027 29.64-3.559 43.084l-39.708-1.879c0.584-14.518 2.133-31.306 3.786-45.837zm-119.24 64.124l39.754 0.672c-0.367 29.756 0.789 50.05 0.861 51.053l-39.707 2.062c-0.07-1-1.295-22.303-0.908-53.787zm8.827 131.18c-2.709-16.959-4.778-36.509-6.299-53.682l39.625-3.275c1.432 16.157 3.413 34.925 5.974 50.925l-39.3 6.032zm38.806-226.46l-39.328-5.847c2.524-17.616 6.083-35.873 9.857-53.264l38.82 8.594c-3.547 16.34-6.973 33.89-9.349 50.517zm10.616 146.09c-0.073-1.004-1.2-20.71-0.84-49.839l39.754 0.672c-0.33 26.563 0.719 46.102 0.792 47.105l-39.706 2.062zm46.181-137.64l-39.331-5.848c2.297-16.097 5.643-33.265 9.124-49.298l38.823 8.594c-3.272 15.065-6.471 31.473-8.616 46.552zm10.398 88.775l39.746 0.672c-0.301 24.149 0.648 42.156 0.723 43.156l-39.698 2.062c-0.075-1.003-1.101-19.348-0.771-45.89zm7.515 111.82c-2.282-14.201-4.098-31.481-5.361-45.72l39.617-3.274c1.187 13.385 2.91 29.766 5.036 42.964l-39.292 6.03zm53.931-171.2l39.492 4.633c-1.406 12.316-2.77 27.16-3.232 39.106l-39.718-1.879c0.508-12.924 1.935-28.498 3.458-41.86zm2.825 162.49c-2.084-12.92-3.743-28.803-4.891-41.74l39.627-3.275c1.752 19.733 3.825 34.404 4.566 38.983l-39.302 6.032zm38.929-175l-39.33-5.847c1.864-13.191 4.779-28.123 7.658-41.364l38.823 8.594c-2.671 12.274-5.44 26.446-7.151 38.617zm12.263 111.82c-0.078-1-0.906-16.337-0.633-37.992l39.752 0.672c-0.226 17.796 0.504 34.256 0.585 35.258l-39.704 2.062zm39.599-52.855l-39.713-1.879c0.443-11.529 1.773-25.986 3.132-37.882l39.486 4.633c-1.699 14.861-2.622 27.61-2.905 35.128zm4.935-50.52l-39.325-5.847c1.661-11.835 4.38-25.705 6.925-37.397l38.817 8.593c-2.397 11.008-4.93 23.997-6.417 34.651zm15.514 17.449l39.492 4.633c-1.509 13.153-2.343 24.635-2.578 31.151l-39.719-1.879c0.271-7.29 1.161-19.551 2.805-33.905zm2.278 131.68c-0.163-1-2.285-15.014-3.952-33.778l39.628-3.275c1.304 14.662 2.694 25.317 3.627 31.021l-39.303 6.032zm52.361-51.715c-0.085-1-0.706-13.729-0.495-30.094l39.763 0.672c-0.177 13.574 0.358 26.359 0.447 27.359l-39.715 2.063zm39.637-41.471l-39.724-1.88c0.217-6.071 1.014-17.18 2.478-29.928l39.498 4.634c-1.329 11.531-2.07 21.864-2.252 27.174zm3.814-39.058l-39.336-5.848c0.87-6.315 2.706-16.846 5.459-29.464l38.829 8.596c-2.512 11.496-4.207 21.254-4.952 26.716zm15.969 13.941l39.497 4.634c-1.148 9.92-1.793 19.075-1.925 23.197l-39.724-1.879c0.171-5.037 0.893-15.036 2.152-25.952zm1.732 100.88c-1.192-7.198-2.35-18.367-3.014-25.816l39.633-3.275c0.419 4.7 1.427 15.499 2.689 23.059l-39.308 6.032zm39.095-106.38l-39.336-5.848c0.693-5.106 2.325-14.512 4.726-25.498l38.828 8.595c-2.146 9.804-3.637 18.417-4.218 22.751zm14.084 43.932l39.763 0.672c-0.131 9.618 0.205 18.46 0.309 19.461l-39.715 2.063c-0.098-0.999-0.509-10.836-0.357-22.196zm3.577 53.739c-0.967-5.771-1.976-15.471-2.544-21.836l39.633-3.275c0.458 5.12 1.388 14.176 2.219 19.079l-39.308 6.032zm37.464-204.5l-24.387-14.018c6.075-10.222 8.428-14.239 17.008-26.623l22.993 16.203c-7.586 10.952-9.527 14.21-15.614 24.438zm19.298 195.79c-0.765-4.485-1.644-13.039-2.075-17.855l39.633-3.275c0.325 3.617 1.128 11.516 1.75 15.098l-39.308 6.032zm-2.682-52.084c0.056-2.057 0.621-10.507 1.497-17.997l39.497 4.634c-0.768 6.521-1.224 13.223-1.271 15.243l-39.723-1.88zm41.857-19.987l-39.336-5.848c0.371-2.873 1.58-9.922 3.26-17.564l38.828 8.595c-1.411 6.397-2.474 12.604-2.752 14.817zm-52.722-39.788c1.651-6.216 3.493-12.308 6.432-20.598l101.62 36.235c-2.024 6.021-1.612 4.31-3.884 12.441l-104.17-28.078zm59.165 134.17c1.215 4.145 2.4 7.692 3.027 9.413l-24.763 8.615c-0.647-1.788-1.999-5.803-3.401-10.574l25.137-7.454zm-16.173 41.389c0.472 1.01 2.889 6.269 4.984 10.165l-23.261 12.096c-2.296-4.283-5.052-10.255-5.519-11.255l23.796-11.006zm24.315 23.664c1.061 1.727 6.525 9.733 6.755 10.02l-47.815 34.067c-0.694-1-6.037-8.64-8.425-12.495l49.485-31.592zm-44.971 46.874l-18.84 13.423c-0.694-1-6.537-9.354-9.219-13.672l19.498-12.448c2.507 4.045 7.865 11.694 8.561 12.697zm-27.565-99.568c0.966 3.626 2.495 8.828 3.673 12.392l-24.946 8.033c-1.353-4.108-2.843-9.158-4.019-13.56l25.292-6.865zm-26.36 38.338c2.652 6.991 4.419 11.183 5.484 13.588l-24.064 10.379c-1.337-3.026-3.369-7.942-5.94-14.716l24.52-9.251zm-20.256 42.585c0.499 1 4.775 9.712 7.489 14.51l-23.007 12.574c-2.961-5.247-7.542-14.577-8.046-15.588l23.564-11.496zm12.087 40.125c3.224 5.171 9.659 14.353 10.368 15.374l-47.8 34.057c-0.761-1.001-9.042-13.061-12.037-17.848l49.469-31.583zm-53.524 34.17c3.051 4.875 11.414 17.051 12.174 18.051l-47.805 34.06c-0.755-1-9.934-14.295-13.844-20.525l49.475-31.586zm-37.174 58.152c5.306 7.276 8.56 11.641 15.189 19.869l-45.711 36.813c-9.116-11.323-13.593-17.567-16.998-22.236l47.52-34.446zm-34.271 59.702l-17.216 13.865c-8.79-10.922-13.045-16.765-17.828-23.321l17.897-12.973c2.497 3.421 7.546 10.503 17.147 22.429zm-35.612-49.511c4.879 7.755 15.038 22.406 15.789 23.408l-18.003 12.827c-0.749-1.001-11.256-16.138-16.418-24.34l18.632-11.895zm-32.017 57.468c-0.746-1-11.755-16.828-17.459-25.883l21.266-13.576c5.35 8.496 15.993 23.817 16.741 24.819l-20.548 14.64zm2.957 4.063l20.428-14.807c6.424 8.806 10.213 13.881 18.178 23.78l-19.65 15.825c-9.356-11.632-13.856-17.808-18.956-24.798zm42.478 52.356c-2.491-2.801-12.721-14.177-20.366-23.645l19.52-15.985c7.296 9.038 17.167 20.016 19.531 22.677l-18.685 16.953zm25.144 26.08c-10.908-10.669-17.333-17.663-21.73-22.388l18.546-17.105c3.362 3.613 9.933 10.807 20.841 21.471l-17.657 18.022zm26.593 24.593c-6.124-5.425-14.275-12.588-23-21.088l17.509-18.166c8.268 8.06 16.083 14.929 22.058 20.224l-16.567 19.03zm24.032-27.596c-5.938-5.263-13.535-11.94-21.634-19.835l15.34-15.916c8.402 8.196 17.32 15.986 20.808 19.079l-14.514 16.672zm17.675-20.303c-5.969-5.293-13.065-11.535-20.628-18.914l40.73-42.259c7.165 7.005 15.003 13.858 18.436 16.906l-38.538 44.267zm20.585-67.423c-8.577-8.367-14.331-14.635-17.251-17.771l43.147-39.796c1.809 1.943 7.317 7.979 15.181 15.638l-41.077 41.929zm29.431-60.828l43.143-39.792c7.562 8.119 10.688 11.14 12.941 13.33l-41.073 41.925c-7.511-7.315-13.156-13.471-15.011-15.463zm33.377 32.458c-1.401-1.246-9.83-8.635-15.884-14.568l40.729-42.259c5.068 4.981 11.22 10.356 13.691 12.559l-38.536 44.268zm41.696-47.902c-2.678-2.388-8.586-7.552-13.508-12.392l16.799-17.429c4.641 4.569 10.674 9.841 12.604 11.564l-15.895 18.257zm23.352-26.824c-2.127-1.9-7.786-6.845-12.18-11.175l16.053-16.656c3.946 3.898 9.194 8.485 11.316 10.384l-15.189 17.447zm10.127 7.519l42.256-52.508c6.255 5.083 11.077 8.482 16.061 11.94l-38.042 55.637c-7.095-4.921-12.574-8.839-20.275-15.069zm31.834 90.845c-5.372-2.659-11.533-5.943-13.161-6.86l10.921-19.93c1.161 0.655 6.895 3.739 12.375 6.449l-10.135 20.341zm0.37-33.452c-7.169-4.016-4.622-2.547-11.863-6.832l11.738-19.46c6.617 3.917 4.237 2.549 11.097 6.39l-10.972 19.902zm12.896-40.867c-6.078-3.592-1.529-0.825-10.305-6.285l12.261-19.129c7.19 4.383 1.546 1.091 9.553 5.823l-11.509 19.591zm2.883 49.06l9.95-20.432c1.552 0.781 7.327 3.498 11.597 5.352l-9.144 20.806c-4.167-1.812-10.499-4.77-12.403-5.726zm18.694 40.497c-6.474-2.456-13.512-5.364-13.763-5.485l8.87-20.918c0.266 0.13 6.99 2.898 12.938 5.154l-8.045 21.249zm17.281-78.696c0.131 0.066 5.845 2.422 10.875 4.327l-8.043 21.244c-5.447-2.064-11.544-4.58-11.7-4.657l8.868-20.914zm14.168 282.53c-3.245-0.621-15.775-2.904-28.474-5.997l5.419-22.827c11.978 2.919 22.453 4.822 27.297 5.749l-4.242 23.075zm6.811-37.046c-1.197-0.229-14.805-2.726-26.585-5.599l4.857-20.462c8.63 2.109 16.818 3.707 25.531 5.377l-3.803 20.684zm-0.823-144.83c-9.993-2.576-22.869-6.521-28.939-8.66l34.208-100.11c1.043 0.377 0.494 0.192 2.221 0.738-1.448 23.513 0.073 44.022 3.895 63.685l-11.385 44.343zm-6.295-133.34l8.868-20.913c0.071 0.037 4.588 1.901 8.76 3.478l-8.043 21.244c-4.648-1.758-9.508-3.77-9.585-3.809zm8.847-28.687c-2.646-1.14-7.204-3.265-8.325-3.837l9.95-20.433c0.963 0.494 5.348 2.531 7.52 3.464l-9.145 20.806zm-0.158-29.901c-0.038-0.016-4.087-2.152-7.162-3.878l11.122-19.806c2.802 1.574 6.365 3.452 6.382 3.46l-10.342 20.224zm7.572-410.78l-3.424-8.684c2.273-0.84 1.477-0.542 3.794-1.423l3.28 8.739c-2.172 0.826-1.419 0.544-3.65 1.368zm3.823 496.7c6.465 1.91 12.096 3.445 12.521 3.544-3.784 14.735-6.416 24.986-10.158 39.559-2.04-14.309-2.781-28.209-2.363-43.103zm24.865 188.47c-14.426-2.012-9.416-1.251-23.457-3.58l3.955-22.104c13.651 2.264 8.908 1.536 22.324 3.407l-2.822 22.277zm4.606-36.359c-12.995-1.812-8.369-1.102-21.607-3.297l3.882-21.698c12.372 2.038 8.995 1.521 11.919 1.928 2.314 3.732 4.758 7.44 7.321 11.1l-1.515 11.967zm6.974-118.12c-1-0.174-13.557-2.294-15.564-2.789l4.763-23.18c1.557 0.389 13.371 2.399 14.372 2.576l-3.571 23.393zm5.713-37.425c-0.817-0.145-12.656-2.195-13.658-2.448l4.194-20.413c1 0.256 11.879 2.129 12.608 2.26l-3.144 20.601zm32.739 315.95v-6e-3 6e-3zm0 0.014zm-10.231-200.63l1.065-21.661c11.049 0.405 18.338 0.468 18.688 0.451l0.022 21.687c-3.242 0.147-18.774-0.44-19.775-0.477zm7.401-116.96l1.062-24.597c1 0.037 7.142 0.326 12.674 0.23l0.171 24.619c-5.883 0.095-12.907-0.215-13.907-0.252zm77.486 206.61l1.111 8.14c-14.934-4.097-29.108-9.657-42.282-16.453l-15.28-298.28s8.106-0.62 8.112-0.62l5.035 51.037c10.929-0.808 28.863-4.076 46.874-9.916 0.517 2.106 1.031 4.204 1.544 6.292-16.088 5.264-29.504 7.903-46.093 9.876l5.865 55.234c22.951-2.701 34.39-5.446 53.232-10.926 0.621 2.608 1.198 5.035 1.791 7.527-13.477 3.942-29.238 8.288-52.048 10.832l6.134 53.931c20.182-2.274 40.236-6.408 58.513-11.892 0.13 0.53 0.096 0.394 2.137 8.744-19.304 5.8-41.795 10.104-57.003 11.784l6.385 52.627c17.111-1.915 43.233-6.856 63.934-13.061 0.913 3.272 1.859 6.563 2.817 9.862-21.735 6.431-40.804 9.976-62.422 13.012l6.616 51.323c23.492-3.314 45.702-7.321 71.775-15.099 1.294 3.623 2.57 7.229 3.912 10.862-24.261 7.227-46.794 11.83-70.659 15.169zm136.38-40.01c-1.399-3.612-2.827-7.162-4.246-10.739 28.63-13.354 54.353-29.364 64.858-36.822l-29.069-42.812c-11.911 8.511-35.911 22.625-56.384 32.14-1.46-3.11-2.929-6.203-4.406-9.262 17.927-8.328 39.204-20.357 57.525-33.1l-30.106-43.635c-14.964 10.433-32.659 20.702-51.393 29.421-2.967-5.682 0.104 0.15-4.181-7.969 20.111-9.371 35.519-18.505 52.589-30.319l-31.158-44.445c-18.347 12.691-36.57 22.416-46.952 26.789-1.203-2.261-2.392-4.496-3.643-6.848 17.795-7.58 41.375-22.427 47.9-27.47l-32.224-45.242c-6.969 5.428-22.6 15.054-41.765 23.491-1.005-1.92-2.011-3.841-3.004-5.736 14.652-6.502 28.284-13.609 42.345-24.009l-30.063-41.549c1.683-1.224 2.535-1.766 7.75-5.947l118.38 145.33c5.043-4.036 12.588-10.632 16.336-14.144l17.905 19.461c16.126-15.036 30.76-30.591 44.151-48.146l-20.933-16.159c2.691-3.507 5.177-6.641 11.563-15.86l-28.064-19.303c8.955-12.789 21.169-33.647 28.614-50.936l-18.154-8.115c-0.668 1.555-0.301 0.742-1.516 3.309l-6.869-3.171c1.193-2.517 0.822-1.698 1.478-3.225l-18.153-8.114c-0.607 1.419-0.266 0.666-1.378 3.005l-6.88-3.176c5.767-12.123 9.988-24.246 13.829-36.999 174.45 95.595 129.7 278.72 31.644 357.54l-22.225-33.264c-19.929 13.11-38.376 24.021-64.101 36.029zm11.484 369.34c4.106-4.686 11.571-8.177 13.836-0.209 2.544 8.951-25.481 13.498-13.836 0.209zm29.296-8.334c3.961-4.75 11.256-8.651 13.819-0.752 2.916 8.987-25.031 14.381-13.819 0.752zm62.609-21.817c3.526-5.153 10.525-9.525 13.703-1.877 3.602 8.668-23.808 16.383-13.703 1.877zm77.559-24.576c-6.087 2.381-11.949-6.94-2.019-12.13 16.152-8.487 9.638 9.075 2.019 12.13z"/>
 <path d="m947.08 1313.4c1e-3 -0.06 0-0.044 0 0z"/>
 <path d="m947.08 1313.5c0-0.012 0-0.023 1e-3 -0.035 0 0.011 0 0.022-1e-3 0.035z"/>
 <path d="m947.08 1313.4v-0.035 0.035z"/>
 <path d="m947.08 1313.4v-4e-3 4e-3z"/>
</svg>
