<?xml version="1.0" standalone="no"?>
<!DOCTYPE svg PUBLIC "-//W3C//DTD SVG 20010904//EN"
 "http://www.w3.org/TR/2001/REC-SVG-20010904/DTD/svg10.dtd">
<svg version="1.0" xmlns="http://www.w3.org/2000/svg"
 width="500.000000pt" height="500.000000pt" viewBox="0 0 500.000000 500.000000"
 preserveAspectRatio="xMidYMid meet">

<g transform="translate(0.000000,500.000000) scale(0.100000,-0.100000)"
fill="#000000" stroke="none">
<path d="M0 2500 l0 -2500 2500 0 2500 0 0 2500 0 2500 -2500 0 -2500 0 0
-2500z m4790 0 l0 -2290 -2290 0 -2290 0 0 2290 0 2290 2290 0 2290 0 0 -2290z"/>
<path d="M340 2495 l0 -2155 2155 0 2155 0 0 2155 0 2155 -2155 0 -2155 0 0
-2155z m1968 718 c44 -109 88 -215 97 -236 l16 -38 -27 3 c-21 2 -30 13 -48
58 l-22 55 -103 0 -103 0 -22 -55 c-18 -45 -27 -56 -49 -58 l-26 -3 65 158
c36 87 80 193 96 236 17 42 34 77 38 77 4 0 44 -89 88 -197z m420 16 l2 161
25 0 25 0 0 -236 c0 -129 -4 -233 -8 -230 -5 3 -62 82 -128 176 l-119 171 -3
-166 c-2 -157 -3 -165 -22 -165 -19 0 -20 8 -20 237 l0 237 123 -173 122 -174
3 162z m278 11 l119 -171 3 161 2 160 25 0 25 0 0 -235 c0 -129 -2 -235 -3
-235 -2 0 -60 79 -128 176 l-124 177 -3 -167 c-2 -158 -3 -166 -22 -166 -19 0
-20 8 -20 235 0 129 1 235 3 235 2 0 57 -77 123 -170z m-1398 -39 c-3 -174 -5
-192 -24 -218 -26 -35 -86 -56 -136 -48 -34 6 -38 10 -38 36 0 26 2 28 19 19
34 -18 80 -12 106 15 25 24 25 26 25 205 l0 180 26 0 26 0 -4 -189z m352 169
c0 -19 -7 -20 -110 -20 l-110 0 0 -80 0 -80 111 0 c109 0 110 0 107 -22 -3
-22 -8 -23 -110 -26 l-108 -3 0 -79 0 -80 110 0 c103 0 110 -1 110 -20 0 -19
-7 -20 -130 -20 l-130 0 0 225 0 225 130 0 c123 0 130 -1 130 -20z m1590 0 c0
-19 -7 -20 -115 -20 l-115 0 0 -80 0 -80 110 0 110 0 0 -25 0 -25 -110 0 -111
0 3 -77 3 -78 113 -3 c104 -2 112 -4 112 -22 0 -19 -7 -20 -135 -20 l-135 0 0
225 0 225 135 0 c128 0 135 -1 135 -20z m-1061 -646 c37 -15 71 -50 71 -74 0
-20 -42 -9 -65 18 -21 24 -30 27 -83 27 -72 0 -102 -21 -102 -70 0 -43 24 -62
112 -89 134 -42 161 -65 160 -137 -1 -71 -50 -115 -140 -126 -26 -3 -67 0 -91
7 -75 20 -138 110 -77 110 16 0 27 -7 31 -20 11 -34 51 -53 110 -53 58 0 96
18 115 54 28 52 -13 89 -139 125 -37 10 -78 30 -98 47 -28 24 -33 36 -33 72 0
100 115 155 229 109z m229 -386 c18 -18 14 -46 -7 -58 -11 -5 -22 -10 -25 -10
-8 0 -36 31 -36 40 0 13 30 40 44 40 6 0 17 -5 24 -12z m-563 -287 c136 -63
176 -233 82 -347 -47 -57 -115 -84 -214 -84 l-83 0 0 225 0 225 88 0 c63 0 98
-5 127 -19z m485 -1 c0 -19 -7 -20 -110 -20 l-110 0 0 -80 0 -80 105 0 105 0
0 -25 0 -25 -105 0 -105 0 0 -80 0 -80 110 0 c103 0 110 -1 110 -20 0 -19 -7
-20 -135 -20 l-135 0 0 225 0 225 135 0 c128 0 135 -1 135 -20z m181 -155 c40
-96 76 -175 79 -175 3 0 39 79 79 175 67 160 76 175 98 175 19 0 24 -4 19 -16
-31 -80 -192 -454 -196 -454 -4 0 -174 392 -196 453 -5 13 -1 17 19 17 22 0
31 -15 98 -175z"/>
<path d="M2178 3208 l-35 -93 75 -3 c41 -2 76 -1 78 1 5 5 -68 187 -76 187 -4
0 -22 -42 -42 -92z"/>
<path d="M1988 2024 c-5 -4 -8 -85 -8 -181 l0 -173 62 0 c42 0 75 7 105 21
125 61 124 254 -3 314 -40 19 -144 32 -156 19z"/>
</g>
</svg>
